<svg xmlns="http://www.w3.org/2000/svg" viewBox="0 0 335 132" width="100%" style="display:block"><rect width="335" height="132" fill="#0d0b0a"/><g transform="translate(16,16)"><g transform="translate(0.0,0)"><rect x="0.0" y="0.0" width="66.0" height="27.0" fill="none" stroke="#f7f3ea" stroke-width="4.4" stroke-linejoin="round" transform="rotate(-0.9 33.0 13.5)"/><rect x="19.5" y="0.0" width="27.0" height="100.0" fill="none" stroke="#f7f3ea" stroke-width="4.4" stroke-linejoin="round"/></g><g transform="translate(79.0,0)"><polygon points="1.0,100.0 28.0,100.0 46.0,0.0 28.0,0.0" fill="none" stroke="#f7f3ea" stroke-width="4.4" stroke-linejoin="round" transform="rotate(0.9 37.0 50.0)"/><polygon points="46.0,100.0 73.0,100.0 46.0,0.0 28.0,0.0" fill="none" stroke="#f7f3ea" stroke-width="4.4" stroke-linejoin="round" transform="rotate(-0.9 37.0 50.0)"/><rect x="11.0" y="60.0" width="52.0" height="21.0" fill="none" stroke="#f7f3ea" stroke-width="4.4" stroke-linejoin="round"/></g><g transform="translate(166.0,0)"><rect x="0.0" y="0.0" width="27.0" height="100.0" fill="none" stroke="#f7f3ea" stroke-width="4.4" stroke-linejoin="round" transform="rotate(0.9 13.5 50.0)"/><rect x="18.9" y="0.0" width="45.1" height="54.0" fill="none" stroke="#f7f3ea" stroke-width="4.4" stroke-linejoin="round" transform="rotate(-0.9 32.0 27)"/><rect x="45.9" y="27.0" width="-8.9" height="0.0" fill="none" stroke="#f7f3ea" stroke-width="3.74" stroke-linejoin="round" transform="rotate(-0.9 32.0 27)"/></g><g transform="translate(243.0,0)"><rect x="0.0" y="0.0" width="27.0" height="100.0" fill="none" stroke="#f7f3ea" stroke-width="4.4" stroke-linejoin="round"/><rect x="0.0" y="0.0" width="60.0" height="27.0" fill="none" stroke="#f7f3ea" stroke-width="4.4" stroke-linejoin="round" transform="rotate(0.9 30.0 13.5)"/><rect x="0.0" y="36.5" width="52.0" height="23.2" fill="none" stroke="#f7f3ea" stroke-width="4.4" stroke-linejoin="round" transform="rotate(-0.9 30.0 50.0)"/><rect x="0.0" y="73.0" width="60.0" height="27.0" fill="none" stroke="#f7f3ea" stroke-width="4.4" stroke-linejoin="round"/></g></g></svg>