<svg xmlns="http://www.w3.org/2000/svg" viewBox="0 0 432.4485714285714 90.32000000000001" width="432.4485714285714" height="90.32000000000001"><rect width="432.4485714285714" height="90.32000000000001" fill="#0d0b0a"/><g transform="translate(16,16)"><g><g transform="translate(0,1.62)"><circle cx="2.39" cy="2.39" r="2.00" fill="#f7f3ea" fill-opacity="1"/><circle cx="7.94" cy="2.39" r="2.00" fill="#f7f3ea" fill-opacity="1"/><circle cx="13.50" cy="2.39" r="2.00" fill="#f7f3ea" fill-opacity="1"/><circle cx="19.05" cy="2.39" r="2.00" fill="#f7f3ea" fill-opacity="1"/><circle cx="24.61" cy="2.39" r="2.00" fill="#f7f3ea" fill-opacity="1"/><circle cx="2.39" cy="7.94" r="2.00" fill="#f7f3ea" fill-opacity="0.11"/><circle cx="7.94" cy="7.94" r="2.00" fill="#f7f3ea" fill-opacity="0.11"/><circle cx="13.50" cy="7.94" r="2.00" fill="#f7f3ea" fill-opacity="1"/><circle cx="19.05" cy="7.94" r="2.00" fill="#f7f3ea" fill-opacity="0.11"/><circle cx="24.61" cy="7.94" r="2.00" fill="#f7f3ea" fill-opacity="0.11"/><circle cx="2.39" cy="13.50" r="2.00" fill="#f7f3ea" fill-opacity="0.11"/><circle cx="7.94" cy="13.50" r="2.00" fill="#f7f3ea" fill-opacity="0.11"/><circle cx="13.50" cy="13.50" r="2.00" fill="#f7f3ea" fill-opacity="1"/><circle cx="19.05" cy="13.50" r="2.00" fill="#f7f3ea" fill-opacity="0.11"/><circle cx="24.61" cy="13.50" r="2.00" fill="#f7f3ea" fill-opacity="0.11"/><circle cx="2.39" cy="19.05" r="2.00" fill="#f7f3ea" fill-opacity="0.11"/><circle cx="7.94" cy="19.05" r="2.00" fill="#f7f3ea" fill-opacity="0.11"/><circle cx="13.50" cy="19.05" r="2.00" fill="#f7f3ea" fill-opacity="1"/><circle cx="19.05" cy="19.05" r="2.00" fill="#f7f3ea" fill-opacity="0.11"/><circle cx="24.61" cy="19.05" r="2.00" fill="#f7f3ea" fill-opacity="0.11"/><circle cx="2.39" cy="24.61" r="2.00" fill="#f7f3ea" fill-opacity="0.11"/><circle cx="7.94" cy="24.61" r="2.00" fill="#f7f3ea" fill-opacity="0.11"/><circle cx="13.50" cy="24.61" r="2.00" fill="#f7f3ea" fill-opacity="1"/><circle cx="19.05" cy="24.61" r="2.00" fill="#f7f3ea" fill-opacity="0.11"/><circle cx="24.61" cy="24.61" r="2.00" fill="#f7f3ea" fill-opacity="0.11"/><circle cx="2.39" cy="30.16" r="2.00" fill="#f7f3ea" fill-opacity="0.11"/><circle cx="7.94" cy="30.16" r="2.00" fill="#f7f3ea" fill-opacity="0.11"/><circle cx="13.50" cy="30.16" r="2.00" fill="#f7f3ea" fill-opacity="1"/><circle cx="19.05" cy="30.16" r="2.00" fill="#f7f3ea" fill-opacity="0.11"/><circle cx="24.61" cy="30.16" r="2.00" fill="#f7f3ea" fill-opacity="0.11"/><circle cx="2.39" cy="35.71" r="2.00" fill="#f7f3ea" fill-opacity="0.11"/><circle cx="7.94" cy="35.71" r="2.00" fill="#f7f3ea" fill-opacity="0.11"/><circle cx="13.50" cy="35.71" r="2.00" fill="#f7f3ea" fill-opacity="1"/><circle cx="19.05" cy="35.71" r="2.00" fill="#f7f3ea" fill-opacity="0.11"/><circle cx="24.61" cy="35.71" r="2.00" fill="#f7f3ea" fill-opacity="0.11"/><circle cx="35.71" cy="2.39" r="2.00" fill="#f7f3ea" fill-opacity="1"/><circle cx="41.27" cy="2.39" r="2.00" fill="#f7f3ea" fill-opacity="1"/><circle cx="46.82" cy="2.39" r="2.00" fill="#f7f3ea" fill-opacity="1"/><circle cx="52.38" cy="2.39" r="2.00" fill="#f7f3ea" fill-opacity="1"/><circle cx="57.93" cy="2.39" r="2.00" fill="#f7f3ea" fill-opacity="1"/><circle cx="35.71" cy="7.94" r="2.00" fill="#f7f3ea" fill-opacity="1"/><circle cx="41.27" cy="7.94" r="2.00" fill="#f7f3ea" fill-opacity="0.11"/><circle cx="46.82" cy="7.94" r="2.00" fill="#f7f3ea" fill-opacity="0.11"/><circle cx="52.38" cy="7.94" r="2.00" fill="#f7f3ea" fill-opacity="0.11"/><circle cx="57.93" cy="7.94" r="2.00" fill="#f7f3ea" fill-opacity="0.11"/><circle cx="35.71" cy="13.50" r="2.00" fill="#f7f3ea" fill-opacity="1"/><circle cx="41.27" cy="13.50" r="2.00" fill="#f7f3ea" fill-opacity="0.11"/><circle cx="46.82" cy="13.50" r="2.00" fill="#f7f3ea" fill-opacity="0.11"/><circle cx="52.38" cy="13.50" r="2.00" fill="#f7f3ea" fill-opacity="0.11"/><circle cx="57.93" cy="13.50" r="2.00" fill="#f7f3ea" fill-opacity="0.11"/><circle cx="35.71" cy="19.05" r="2.00" fill="#f7f3ea" fill-opacity="1"/><circle cx="41.27" cy="19.05" r="2.00" fill="#f7f3ea" fill-opacity="1"/><circle cx="46.82" cy="19.05" r="2.00" fill="#f7f3ea" fill-opacity="1"/><circle cx="52.38" cy="19.05" r="2.00" fill="#f7f3ea" fill-opacity="1"/><circle cx="57.93" cy="19.05" r="2.00" fill="#f7f3ea" fill-opacity="0.11"/><circle cx="35.71" cy="24.61" r="2.00" fill="#f7f3ea" fill-opacity="1"/><circle cx="41.27" cy="24.61" r="2.00" fill="#f7f3ea" fill-opacity="0.11"/><circle cx="46.82" cy="24.61" r="2.00" fill="#f7f3ea" fill-opacity="0.11"/><circle cx="52.38" cy="24.61" r="2.00" fill="#f7f3ea" fill-opacity="0.11"/><circle cx="57.93" cy="24.61" r="2.00" fill="#f7f3ea" fill-opacity="0.11"/><circle cx="35.71" cy="30.16" r="2.00" fill="#f7f3ea" fill-opacity="1"/><circle cx="41.27" cy="30.16" r="2.00" fill="#f7f3ea" fill-opacity="0.11"/><circle cx="46.82" cy="30.16" r="2.00" fill="#f7f3ea" fill-opacity="0.11"/><circle cx="52.38" cy="30.16" r="2.00" fill="#f7f3ea" fill-opacity="0.11"/><circle cx="57.93" cy="30.16" r="2.00" fill="#f7f3ea" fill-opacity="0.11"/><circle cx="35.71" cy="35.71" r="2.00" fill="#f7f3ea" fill-opacity="1"/><circle cx="41.27" cy="35.71" r="2.00" fill="#f7f3ea" fill-opacity="1"/><circle cx="46.82" cy="35.71" r="2.00" fill="#f7f3ea" fill-opacity="1"/><circle cx="52.38" cy="35.71" r="2.00" fill="#f7f3ea" fill-opacity="1"/><circle cx="57.93" cy="35.71" r="2.00" fill="#f7f3ea" fill-opacity="1"/><circle cx="69.04" cy="2.39" r="2.00" fill="#f7f3ea" fill-opacity="0.11"/><circle cx="74.59" cy="2.39" r="2.00" fill="#f7f3ea" fill-opacity="1"/><circle cx="80.15" cy="2.39" r="2.00" fill="#f7f3ea" fill-opacity="1"/><circle cx="85.70" cy="2.39" r="2.00" fill="#f7f3ea" fill-opacity="1"/><circle cx="91.26" cy="2.39" r="2.00" fill="#f7f3ea" fill-opacity="0.11"/><circle cx="69.04" cy="7.94" r="2.00" fill="#f7f3ea" fill-opacity="1"/><circle cx="74.59" cy="7.94" r="2.00" fill="#f7f3ea" fill-opacity="0.11"/><circle cx="80.15" cy="7.94" r="2.00" fill="#f7f3ea" fill-opacity="0.11"/><circle cx="85.70" cy="7.94" r="2.00" fill="#f7f3ea" fill-opacity="0.11"/><circle cx="91.26" cy="7.94" r="2.00" fill="#f7f3ea" fill-opacity="1"/><circle cx="69.04" cy="13.50" r="2.00" fill="#f7f3ea" fill-opacity="1"/><circle cx="74.59" cy="13.50" r="2.00" fill="#f7f3ea" fill-opacity="0.11"/><circle cx="80.15" cy="13.50" r="2.00" fill="#f7f3ea" fill-opacity="0.11"/><circle cx="85.70" cy="13.50" r="2.00" fill="#f7f3ea" fill-opacity="0.11"/><circle cx="91.26" cy="13.50" r="2.00" fill="#f7f3ea" fill-opacity="0.11"/><circle cx="69.04" cy="19.05" r="2.00" fill="#f7f3ea" fill-opacity="1"/><circle cx="74.59" cy="19.05" r="2.00" fill="#f7f3ea" fill-opacity="0.11"/><circle cx="80.15" cy="19.05" r="2.00" fill="#f7f3ea" fill-opacity="0.11"/><circle cx="85.70" cy="19.05" r="2.00" fill="#f7f3ea" fill-opacity="0.11"/><circle cx="91.26" cy="19.05" r="2.00" fill="#f7f3ea" fill-opacity="0.11"/><circle cx="69.04" cy="24.61" r="2.00" fill="#f7f3ea" fill-opacity="1"/><circle cx="74.59" cy="24.61" r="2.00" fill="#f7f3ea" fill-opacity="0.11"/><circle cx="80.15" cy="24.61" r="2.00" fill="#f7f3ea" fill-opacity="0.11"/><circle cx="85.70" cy="24.61" r="2.00" fill="#f7f3ea" fill-opacity="0.11"/><circle cx="91.26" cy="24.61" r="2.00" fill="#f7f3ea" fill-opacity="0.11"/><circle cx="69.04" cy="30.16" r="2.00" fill="#f7f3ea" fill-opacity="1"/><circle cx="74.59" cy="30.16" r="2.00" fill="#f7f3ea" fill-opacity="0.11"/><circle cx="80.15" cy="30.16" r="2.00" fill="#f7f3ea" fill-opacity="0.11"/><circle cx="85.70" cy="30.16" r="2.00" fill="#f7f3ea" fill-opacity="0.11"/><circle cx="91.26" cy="30.16" r="2.00" fill="#f7f3ea" fill-opacity="1"/><circle cx="69.04" cy="35.71" r="2.00" fill="#f7f3ea" fill-opacity="0.11"/><circle cx="74.59" cy="35.71" r="2.00" fill="#f7f3ea" fill-opacity="1"/><circle cx="80.15" cy="35.71" r="2.00" fill="#f7f3ea" fill-opacity="1"/><circle cx="85.70" cy="35.71" r="2.00" fill="#f7f3ea" fill-opacity="1"/><circle cx="91.26" cy="35.71" r="2.00" fill="#f7f3ea" fill-opacity="0.11"/><circle cx="102.37" cy="2.39" r="2.00" fill="#f7f3ea" fill-opacity="1"/><circle cx="107.92" cy="2.39" r="2.00" fill="#f7f3ea" fill-opacity="0.11"/><circle cx="113.47" cy="2.39" r="2.00" fill="#f7f3ea" fill-opacity="0.11"/><circle cx="119.03" cy="2.39" r="2.00" fill="#f7f3ea" fill-opacity="0.11"/><circle cx="124.58" cy="2.39" r="2.00" fill="#f7f3ea" fill-opacity="1"/><circle cx="102.37" cy="7.94" r="2.00" fill="#f7f3ea" fill-opacity="1"/><circle cx="107.92" cy="7.94" r="2.00" fill="#f7f3ea" fill-opacity="0.11"/><circle cx="113.47" cy="7.94" r="2.00" fill="#f7f3ea" fill-opacity="0.11"/><circle cx="119.03" cy="7.94" r="2.00" fill="#f7f3ea" fill-opacity="0.11"/><circle cx="124.58" cy="7.94" r="2.00" fill="#f7f3ea" fill-opacity="1"/><circle cx="102.37" cy="13.50" r="2.00" fill="#f7f3ea" fill-opacity="1"/><circle cx="107.92" cy="13.50" r="2.00" fill="#f7f3ea" fill-opacity="0.11"/><circle cx="113.47" cy="13.50" r="2.00" fill="#f7f3ea" fill-opacity="0.11"/><circle cx="119.03" cy="13.50" r="2.00" fill="#f7f3ea" fill-opacity="0.11"/><circle cx="124.58" cy="13.50" r="2.00" fill="#f7f3ea" fill-opacity="1"/><circle cx="102.37" cy="19.05" r="2.00" fill="#f7f3ea" fill-opacity="1"/><circle cx="107.92" cy="19.05" r="2.00" fill="#f7f3ea" fill-opacity="1"/><circle cx="113.47" cy="19.05" r="2.00" fill="#f7f3ea" fill-opacity="1"/><circle cx="119.03" cy="19.05" r="2.00" fill="#f7f3ea" fill-opacity="1"/><circle cx="124.58" cy="19.05" r="2.00" fill="#f7f3ea" fill-opacity="1"/><circle cx="102.37" cy="24.61" r="2.00" fill="#f7f3ea" fill-opacity="1"/><circle cx="107.92" cy="24.61" r="2.00" fill="#f7f3ea" fill-opacity="0.11"/><circle cx="113.47" cy="24.61" r="2.00" fill="#f7f3ea" fill-opacity="0.11"/><circle cx="119.03" cy="24.61" r="2.00" fill="#f7f3ea" fill-opacity="0.11"/><circle cx="124.58" cy="24.61" r="2.00" fill="#f7f3ea" fill-opacity="1"/><circle cx="102.37" cy="30.16" r="2.00" fill="#f7f3ea" fill-opacity="1"/><circle cx="107.92" cy="30.16" r="2.00" fill="#f7f3ea" fill-opacity="0.11"/><circle cx="113.47" cy="30.16" r="2.00" fill="#f7f3ea" fill-opacity="0.11"/><circle cx="119.03" cy="30.16" r="2.00" fill="#f7f3ea" fill-opacity="0.11"/><circle cx="124.58" cy="30.16" r="2.00" fill="#f7f3ea" fill-opacity="1"/><circle cx="102.37" cy="35.71" r="2.00" fill="#f7f3ea" fill-opacity="1"/><circle cx="107.92" cy="35.71" r="2.00" fill="#f7f3ea" fill-opacity="0.11"/><circle cx="113.47" cy="35.71" r="2.00" fill="#f7f3ea" fill-opacity="0.11"/><circle cx="119.03" cy="35.71" r="2.00" fill="#f7f3ea" fill-opacity="0.11"/><circle cx="124.58" cy="35.71" r="2.00" fill="#f7f3ea" fill-opacity="1"/></g><text x="143.94857142857143" y="38.879999999999995" font-family="Inter, 'Helvetica Neue', Arial, sans-serif" font-size="54" font-weight="700" letter-spacing="-2.43" fill="#f7f3ea">NOT <tspan fill="none" stroke="#f7f3ea" stroke-width="1.19" stroke-opacity="0.85">TAPE</tspan></text></g></g></svg>